# xmcd
#
# Track frame offsets: 
#        150
#        6520
#        15952
#        26367
#        29250
#        38813
#        55682
#        65034
#        76459
#        84417
#        99153
#        103725
#        111333
#        122649
#        131027
#        141962
#        147000
#        160276
#        172107
#        180634
#        189439
#        206059
#        212447
#        222333
#        232782
#        252433
#        262431
#        268585
#        276118
#        284682
#        301872
#        305493
#        319554
#        326601
#
# Disc length: 4560 seconds
#
# Revision: 0
# Processed by: cddbd v1.5.2PL0 Copyright (c) Steve Scherf et al.
# Submitted via: ExactAudioCopy v0.95a4
#
DISCID=ee11ce22
DTITLE=DJ 2-Tone Jones - A Brief Education on the Musical Genius of Ja
DTITLE=y Dee
DYEAR=2007
DGENRE=Hip-Hop
TTITLE0=Fuck The Police
TTITLE1=Reckless Driving
TTITLE2=Move (remix) - Oh No feat. J Dilla and Roc C
TTITLE3=Think Twice
TTITLE4=Jealousy - Slum Village
TTITLE5=The Hop - A Tribe Called Quest
TTITLE6=Let's Ride - Q-Tip
TTITLE7=Certified - Guru feat. Bilal
TTITLE8=Much More - De La Soul
TTITLE9=Stakes Is High - De La Soul
TTITLE10=Stakes Is High (remix) - De La Soul feat. Truth Enola and Mos
TTITLE10=Def
TTITLE11=Theolonius - Common feat. Slum Village
TTITLE12=So Hardcore - Busta Rhymes
TTITLE13=Game Over - Dabrye feat. Phat Kat and Jay Dee
TTITLE14=Act Like You Know (Ge-ology remix) - Platinum Pied Pipers fea
TTITLE14=t. Jay Dee
TTITLE15=Eve (J Dilla remix) - Spacek feat. J Dilla and Frank -n- Dank
TTITLE16=Keep On It - J-88
TTITLE17=The Rhyme (Ummah remix) - Keith Murray
TTITLE18=That Shit - Funkmaster Flex feat. A Tribe Called Quest and Ja
TTITLE18=y Dee
TTITLE19=Enjoy Da Ride - Busta Rhymes
TTITLE20=Runnin' - Pharcyde
TTITLE21=Runnin' (Jay Dee remix) - Pharcyde
TTITLE22=Dedication to the Sucker - Phat Kat
TTITLE23=Reminisce - Bilal feat. Mos Def and Common
TTITLE24=The Mission - Jaylib
TTITLE25=Lightworks - Jay Dee
TTITLE26=Push - MED feat. J Dilla
TTITLE27=Do You - Slum Village
TTITLE28=Didn't Cha Know - Erykah Badu
TTITLE29=Splattitorium - Pharcyde
TTITLE30=Move - Jay Dee feat. Frank -n- Dank
TTITLE31=Oblighetto - J Dilla
TTITLE32=Love (A Thing of the Past) - Frank -n- Dank
TTITLE33=Outro - Slum Village
EXTD=
EXTT0=
EXTT1=
EXTT2=
EXTT3=
EXTT4=
EXTT5=
EXTT6=
EXTT7=
EXTT8=
EXTT9=
EXTT10=
EXTT11=
EXTT12=
EXTT13=
EXTT14=
EXTT15=
EXTT16=
EXTT17=
EXTT18=
EXTT19=
EXTT20=
EXTT21=
EXTT22=
EXTT23=
EXTT24=
EXTT25=
EXTT26=
EXTT27=
EXTT28=
EXTT29=
EXTT30=
EXTT31=
EXTT32=
EXTT33=
PLAYORDER=
